<?xml version="1.0" standalone="no"?>
<!DOCTYPE svg PUBLIC "-//W3C//DTD SVG 20010904//EN"
 "http://www.w3.org/TR/2001/REC-SVG-20010904/DTD/svg10.dtd">
<svg version="1.0" xmlns="http://www.w3.org/2000/svg"
 width="3464.000000pt" height="3464.000000pt" viewBox="0 0 3464.000000 3464.000000"
 preserveAspectRatio="xMidYMid meet">

<g transform="translate(0.000000,3464.000000) scale(0.100000,-0.100000)"
fill="#000000" stroke="none">
<path d="M7810 31733 c-149 -22 -235 -42 -345 -78 -71 -23 -161 -52 -200 -63
-38 -12 -92 -36 -119 -54 -45 -31 -104 -68 -186 -118 -75 -45 -283 -266 -320
-340 -12 -25 -35 -61 -50 -80 -35 -45 -72 -120 -95 -190 -9 -30 -37 -89 -61
-130 -29 -50 -52 -110 -69 -175 -14 -55 -50 -152 -80 -215 -33 -72 -61 -151
-75 -210 -11 -52 -43 -154 -70 -226 -33 -89 -56 -171 -69 -252 -11 -66 -32
-151 -46 -188 -46 -120 -92 -398 -120 -724 -4 -41 -13 -106 -22 -145 -8 -38
-18 -135 -23 -215 -4 -80 -16 -188 -26 -240 -23 -125 -23 -293 1 -380 14 -50
20 -123 25 -310 4 -135 12 -263 18 -285 13 -46 27 -170 47 -410 14 -170 21
-199 91 -430 40 -134 54 -270 35 -341 -6 -24 -32 -65 -61 -98 -28 -32 -57 -71
-66 -87 -8 -16 -36 -53 -62 -82 -26 -29 -58 -70 -71 -92 -14 -22 -48 -69 -77
-105 -28 -36 -65 -92 -82 -125 -16 -33 -44 -78 -62 -100 -18 -22 -49 -74 -70
-115 -21 -42 -57 -100 -80 -128 -23 -29 -54 -82 -70 -118 -16 -36 -50 -94 -75
-129 -25 -35 -59 -100 -75 -144 -16 -43 -45 -104 -64 -133 -19 -30 -48 -94
-65 -143 -18 -49 -54 -125 -81 -169 -28 -47 -57 -112 -69 -154 -11 -40 -43
-123 -71 -185 -34 -72 -61 -151 -77 -222 -14 -60 -45 -156 -69 -212 -45 -103
-60 -155 -89 -318 -9 -49 -27 -121 -40 -160 -44 -129 -75 -269 -91 -410 -26
-243 -54 -422 -80 -528 -23 -88 -27 -134 -34 -342 -5 -132 -13 -269 -19 -305
-13 -80 -13 -752 0 -835 5 -33 12 -226 15 -430 5 -315 8 -380 24 -440 10 -38
21 -106 25 -149 3 -44 12 -107 20 -140 16 -71 32 -214 45 -411 21 -300 32
-390 62 -504 17 -64 41 -156 54 -204 12 -49 28 -138 34 -198 14 -144 24 -196
60 -304 37 -113 65 -230 85 -365 13 -84 26 -126 65 -210 35 -74 58 -144 79
-237 21 -92 40 -152 64 -195 42 -76 63 -140 77 -233 15 -99 26 -129 80 -211
30 -46 53 -96 64 -139 18 -74 43 -126 89 -194 16 -24 44 -89 62 -145 18 -60
47 -126 69 -159 21 -31 52 -92 70 -135 18 -44 54 -108 79 -143 25 -36 55 -88
66 -117 12 -29 44 -83 73 -120 28 -37 62 -92 76 -122 14 -30 42 -78 64 -107
22 -29 54 -83 72 -120 18 -37 57 -97 85 -133 29 -36 61 -81 71 -100 10 -19 45
-66 79 -104 34 -38 61 -73 61 -78 0 -5 26 -37 59 -72 32 -34 67 -76 77 -92 10
-16 44 -58 75 -94 30 -36 66 -81 79 -100 33 -50 775 -794 835 -837 28 -20 75
-57 105 -83 30 -26 75 -59 100 -75 25 -15 68 -49 95 -75 28 -26 70 -60 95 -75
25 -15 67 -48 93 -72 26 -24 71 -55 100 -68 29 -12 79 -44 112 -70 33 -26 87
-60 120 -77 33 -17 78 -46 99 -66 21 -19 76 -52 121 -72 44 -21 104 -58 132
-81 30 -26 78 -53 116 -67 35 -12 99 -45 142 -72 43 -27 101 -57 129 -66 65
-21 118 -48 168 -85 22 -15 77 -42 121 -60 44 -17 122 -51 171 -76 50 -25 134
-59 186 -75 52 -16 111 -40 130 -52 68 -45 122 -67 218 -92 53 -14 138 -44
187 -66 104 -47 148 -62 265 -87 47 -11 133 -40 190 -66 77 -35 143 -55 245
-77 77 -16 180 -45 230 -65 114 -46 125 -49 289 -77 149 -26 190 -44 221 -96
19 -33 20 -48 16 -235 -5 -264 -3 -1050 4 -1832 7 -699 8 -683 -56 -722 -18
-11 -58 -23 -88 -26 -31 -4 -99 -15 -153 -26 -53 -10 -118 -19 -145 -19 -28 0
-94 -9 -149 -21 -87 -18 -123 -20 -304 -16 -119 3 -220 9 -240 16 -19 7 -83
16 -141 21 -58 5 -134 16 -170 24 -35 8 -98 20 -139 26 -138 21 -244 52 -340
101 -53 27 -139 59 -194 74 -71 18 -112 35 -145 60 -25 19 -73 51 -105 71 -33
19 -81 55 -107 78 -26 23 -73 56 -105 73 -44 24 -119 91 -299 270 -132 131
-265 272 -296 314 -32 42 -62 80 -68 83 -10 6 -78 88 -200 239 -18 23 -58 68
-87 100 -30 32 -63 75 -73 96 -11 21 -36 57 -57 82 -20 24 -56 73 -79 109 -23
36 -63 90 -89 120 -26 30 -55 69 -63 85 -8 17 -36 55 -62 85 -26 30 -60 78
-76 105 -15 28 -46 70 -68 95 -21 25 -57 76 -80 115 -22 38 -59 90 -82 115
-23 25 -54 68 -69 95 -16 28 -43 66 -61 85 -18 19 -50 62 -71 95 -20 33 -58
85 -84 115 -25 30 -63 81 -83 112 -20 31 -50 67 -67 80 -17 12 -41 39 -53 58
-12 19 -49 65 -82 101 -33 37 -89 102 -125 145 -97 117 -207 231 -275 283 -61
47 -121 101 -223 202 -32 30 -75 66 -97 79 -22 13 -60 42 -85 65 -25 24 -65
55 -90 70 -25 15 -73 50 -106 76 -34 27 -99 67 -145 89 -46 21 -113 58 -149
80 -36 23 -88 48 -116 56 -28 8 -72 28 -98 44 -78 50 -119 68 -207 90 -46 12
-130 42 -187 66 -56 25 -133 52 -170 60 -110 24 -357 29 -504 10 -136 -18
-172 -27 -264 -73 -32 -17 -90 -40 -129 -53 -42 -13 -92 -39 -123 -64 -29 -22
-72 -54 -96 -71 -50 -35 -177 -147 -256 -225 -49 -49 -83 -98 -182 -269 -15
-25 -35 -68 -44 -96 -9 -27 -37 -88 -62 -135 l-45 -85 -15 -260 c-18 -308 -14
-346 51 -479 24 -50 54 -132 66 -182 12 -50 30 -103 39 -117 37 -56 138 -185
191 -243 31 -33 77 -86 103 -116 26 -31 68 -69 93 -85 25 -15 83 -52 128 -82
45 -29 121 -68 168 -86 47 -17 105 -45 130 -62 55 -38 112 -67 184 -94 37 -14
76 -40 121 -82 148 -140 270 -264 288 -292 11 -16 45 -60 75 -96 162 -192 188
-225 216 -269 17 -26 52 -71 79 -101 26 -29 57 -71 68 -93 12 -23 40 -63 63
-91 23 -27 58 -75 77 -105 19 -30 56 -80 82 -110 26 -30 57 -73 68 -94 11 -22
42 -62 68 -90 26 -28 55 -66 65 -85 9 -19 36 -55 60 -80 23 -25 60 -74 82
-107 22 -34 60 -86 85 -115 25 -30 62 -81 82 -114 20 -33 56 -83 79 -112 23
-28 59 -77 81 -107 21 -30 80 -97 130 -148 51 -51 109 -120 130 -153 21 -33
88 -109 147 -170 60 -60 126 -135 147 -165 37 -54 301 -327 373 -385 103 -84
176 -148 294 -264 85 -83 154 -142 200 -168 39 -23 90 -59 115 -81 25 -21 65
-49 90 -62 25 -13 69 -43 99 -67 30 -25 85 -60 122 -78 37 -19 88 -53 115 -76
26 -23 82 -57 123 -75 41 -19 99 -51 130 -71 30 -20 88 -49 128 -64 41 -15
104 -45 141 -67 37 -22 99 -50 137 -62 118 -36 186 -61 263 -97 40 -18 128
-47 195 -63 67 -16 165 -44 217 -63 126 -46 256 -73 415 -87 72 -6 180 -22
240 -36 65 -15 169 -29 255 -34 80 -5 174 -16 210 -24 53 -13 141 -16 464 -16
359 0 411 2 520 21 73 12 148 19 190 17 62 -3 71 -7 97 -35 15 -18 33 -49 38
-70 7 -24 11 -201 11 -478 0 -455 9 -644 34 -730 48 -166 110 -357 130 -400
13 -27 39 -69 59 -93 20 -24 51 -71 69 -105 45 -87 241 -283 319 -319 31 -15
72 -40 90 -55 80 -68 103 -78 404 -172 255 -79 448 -78 689 3 39 14 112 37
161 51 108 32 173 64 223 109 20 18 61 46 91 62 73 39 278 243 325 324 20 34
57 87 81 117 40 48 52 77 109 256 87 271 86 269 97 436 14 241 12 5174 -4
5328 -7 79 -12 286 -12 543 0 522 16 645 99 754 12 17 42 64 65 103 23 40 50
77 61 83 10 5 40 42 66 82 27 40 69 98 94 128 25 31 56 77 70 104 14 27 43 70
66 95 52 58 59 71 84 165 11 42 38 119 60 170 58 135 64 195 53 488 l-9 247
-51 103 c-29 57 -59 126 -68 154 -8 28 -36 81 -60 117 -24 37 -53 84 -64 105
-31 60 -98 134 -196 215 -49 40 -97 82 -105 91 -8 10 -39 35 -70 56 -31 21
-62 45 -70 55 -22 27 -79 51 -163 69 -42 10 -115 35 -161 56 -100 46 -169 65
-296 80 -176 20 -404 61 -508 90 -57 16 -154 35 -215 41 -286 28 -547 70 -672
109 -55 17 -145 38 -200 46 -87 14 -185 43 -382 115 -29 10 -99 26 -155 35
-57 9 -132 27 -168 41 -150 56 -236 83 -324 102 -64 13 -125 35 -192 69 -55
27 -139 64 -189 81 -49 18 -122 50 -162 72 -40 22 -112 53 -160 70 -48 16
-103 40 -123 53 -55 36 -118 67 -174 83 -62 19 -114 45 -181 90 -27 20 -72 45
-100 58 -27 12 -72 43 -100 69 -27 26 -75 60 -105 76 -30 16 -80 49 -110 74
-30 26 -85 62 -121 81 -37 19 -73 42 -80 52 -8 9 -50 40 -94 69 -60 39 -149
121 -352 325 -150 151 -287 294 -304 319 -18 25 -54 69 -81 98 -26 30 -48 58
-48 63 0 5 -27 38 -59 73 -33 35 -68 81 -79 102 -11 22 -41 68 -67 104 -27 35
-63 97 -82 138 -18 41 -53 102 -77 135 -24 34 -55 88 -69 119 -14 31 -43 83
-65 115 -40 59 -59 105 -86 203 -8 30 -29 76 -45 102 -50 79 -63 108 -93 218
-16 58 -45 134 -63 170 -47 89 -53 109 -80 235 -12 61 -46 169 -74 242 -39
101 -55 162 -71 260 -24 151 -33 193 -71 332 -48 172 -66 294 -99 666 -6 66
-17 145 -24 175 -8 30 -17 91 -21 135 -3 44 -15 114 -26 157 -16 63 -19 113
-20 285 0 114 -5 233 -10 263 -5 30 -12 186 -15 345 -5 225 -3 330 10 470 9
99 16 211 16 250 0 38 9 124 19 190 11 66 22 161 26 210 4 50 22 155 41 235
18 80 41 177 50 215 9 39 34 115 56 170 21 55 54 171 73 258 27 126 42 173 73
230 22 40 49 98 61 130 11 31 45 93 75 136 29 43 63 108 76 145 12 36 44 101
72 143 28 43 60 101 71 128 11 28 40 78 64 113 25 34 60 90 78 123 34 60 111
157 216 274 31 34 69 80 83 102 15 22 40 49 56 61 16 12 43 43 61 69 18 27 59
80 91 118 135 164 206 253 235 295 17 25 45 59 63 75 18 17 48 61 67 99 19 38
50 92 69 121 25 36 43 85 64 168 27 106 30 139 36 335 6 211 5 222 -25 393
-17 98 -42 206 -57 245 -51 131 -83 239 -102 344 -12 65 -33 137 -57 190 -57
129 -84 271 -95 501 -6 108 -19 245 -30 305 -28 154 -29 511 -1 646 11 51 27
172 36 268 22 237 22 239 55 272 21 21 38 28 67 28 69 0 223 -39 319 -80 52
-22 145 -52 207 -66 118 -28 138 -36 227 -90 32 -20 96 -44 153 -59 66 -17
123 -40 175 -70 42 -25 120 -59 172 -75 58 -18 122 -47 163 -74 38 -25 92 -53
120 -62 69 -22 124 -50 169 -86 20 -15 71 -44 113 -63 42 -20 96 -48 118 -64
55 -37 119 -69 183 -92 29 -9 77 -36 106 -58 30 -22 88 -56 130 -75 42 -19 94
-50 115 -69 21 -19 74 -53 118 -75 45 -22 101 -57 125 -78 25 -20 72 -50 106
-65 33 -15 84 -46 112 -69 29 -22 94 -60 145 -84 51 -24 114 -57 140 -74 27
-17 83 -43 125 -57 43 -15 120 -44 172 -65 228 -92 490 -101 769 -29 64 17
141 37 171 45 30 8 127 23 215 35 97 13 244 42 373 75 132 33 272 61 370 74
86 11 195 29 242 40 155 38 454 99 540 110 47 6 164 15 260 20 120 6 198 16
249 30 63 17 104 20 261 20 158 0 199 3 266 21 63 17 126 23 309 29 787 28
878 30 1186 19 173 -6 418 -14 544 -18 187 -7 245 -12 309 -30 69 -18 107 -21
271 -21 162 0 201 -3 260 -20 49 -15 122 -23 245 -30 264 -14 386 -32 605 -90
122 -33 277 -61 465 -85 138 -17 175 -25 400 -83 85 -22 198 -45 250 -51 175
-21 234 -32 380 -71 210 -57 258 -64 425 -63 172 0 297 22 411 71 38 16 106
42 151 56 45 15 112 47 150 72 37 24 91 53 121 64 79 30 112 48 162 90 25 21
75 52 110 70 36 18 88 49 116 70 28 21 84 55 125 75 41 21 91 53 113 72 21 20
64 46 95 59 74 32 107 51 159 90 24 18 80 47 124 64 45 17 109 50 143 74 34
25 89 55 122 69 33 14 89 44 124 68 35 23 101 58 148 76 47 18 113 52 148 74
36 24 97 51 143 65 45 13 111 40 148 60 37 20 79 43 94 51 16 8 69 25 120 39
59 16 122 42 177 74 63 36 114 56 189 75 56 14 147 43 201 65 178 70 322 96
379 66 44 -23 58 -57 66 -156 13 -167 38 -366 52 -421 23 -91 19 -493 -5 -634
-11 -61 -22 -171 -25 -245 -8 -181 -41 -395 -72 -478 -14 -37 -37 -95 -50
-130 -13 -35 -33 -116 -45 -180 -12 -71 -34 -150 -56 -202 -52 -125 -67 -185
-104 -406 -31 -190 -32 -204 -21 -304 7 -58 12 -132 12 -164 0 -117 55 -307
113 -389 11 -16 33 -56 49 -88 15 -33 48 -82 72 -107 25 -26 59 -68 78 -94 49
-70 156 -203 214 -268 29 -31 67 -82 87 -112 19 -30 49 -65 66 -77 17 -12 45
-43 63 -69 17 -26 56 -74 85 -107 143 -161 176 -202 195 -239 11 -23 42 -74
69 -114 27 -40 65 -105 83 -145 18 -39 54 -102 79 -139 24 -36 53 -90 62 -120
24 -72 41 -104 86 -164 21 -27 46 -68 54 -90 9 -21 41 -91 71 -155 44 -93 59
-140 78 -240 14 -68 42 -172 64 -229 63 -168 81 -229 97 -336 8 -55 24 -130
35 -165 14 -42 24 -113 30 -209 5 -80 16 -174 25 -210 8 -36 14 -90 15 -120 0
-30 7 -118 15 -195 17 -163 20 -610 4 -725 -5 -41 -14 -205 -19 -365 -4 -159
-13 -308 -20 -330 -6 -22 -15 -85 -20 -141 -5 -55 -17 -121 -25 -145 -9 -25
-20 -106 -25 -189 -11 -164 -37 -402 -51 -470 -5 -25 -23 -85 -39 -135 -16
-49 -46 -184 -65 -300 -39 -232 -43 -247 -90 -355 -32 -75 -50 -142 -79 -294
-10 -51 -33 -114 -65 -180 -27 -55 -59 -137 -71 -181 -12 -47 -41 -115 -71
-166 -32 -56 -56 -116 -70 -170 -22 -88 -38 -126 -75 -174 -12 -17 -42 -68
-65 -115 -23 -47 -61 -112 -84 -145 -24 -33 -57 -91 -74 -128 -17 -38 -51 -95
-76 -128 -24 -33 -59 -88 -77 -121 -17 -33 -42 -67 -55 -75 -12 -8 -39 -40
-59 -71 -20 -32 -58 -82 -84 -112 -26 -30 -59 -76 -73 -101 -70 -120 -469
-514 -595 -588 -37 -21 -87 -58 -111 -80 -24 -23 -68 -54 -96 -70 -29 -16 -73
-48 -99 -70 -25 -22 -74 -53 -109 -70 -34 -16 -86 -51 -116 -76 -30 -25 -72
-55 -95 -67 -23 -11 -65 -42 -94 -69 -38 -34 -69 -53 -110 -65 -111 -32 -148
-48 -201 -86 -35 -24 -90 -49 -150 -68 -54 -17 -132 -51 -180 -79 -50 -30
-111 -56 -152 -66 -40 -10 -95 -34 -131 -56 -97 -61 -138 -78 -250 -100 -56
-12 -164 -43 -239 -69 -75 -27 -179 -56 -230 -66 -52 -9 -156 -38 -232 -65
-76 -27 -195 -60 -265 -74 -180 -36 -305 -64 -397 -91 -100 -28 -175 -41 -290
-49 -49 -4 -130 -13 -180 -20 -49 -7 -121 -16 -160 -20 -38 -4 -128 -22 -200
-40 -71 -19 -173 -39 -225 -44 -336 -38 -407 -52 -540 -106 -58 -24 -142 -53
-188 -65 -66 -18 -92 -31 -130 -64 -26 -24 -81 -62 -122 -86 -96 -56 -267
-224 -305 -301 -15 -30 -52 -87 -83 -127 -51 -68 -60 -87 -123 -286 -77 -242
-94 -340 -86 -496 6 -111 17 -157 92 -395 53 -169 72 -211 125 -275 21 -25 46
-62 56 -82 11 -20 49 -74 86 -120 137 -168 187 -237 214 -289 15 -30 44 -79
64 -110 21 -30 46 -80 56 -110 18 -52 19 -182 24 -3354 l5 -3300 32 -100 c17
-55 47 -152 67 -215 47 -154 58 -178 106 -236 22 -27 57 -80 77 -118 49 -92
225 -269 315 -316 35 -18 84 -50 110 -72 26 -21 71 -49 100 -62 53 -23 273
-93 400 -127 155 -41 364 -33 528 20 47 16 139 45 205 66 125 38 186 68 220
105 11 12 49 38 85 58 87 49 294 253 344 341 21 36 54 83 74 107 65 73 185
448 202 627 12 123 7 6544 -5 6697 -8 108 4 149 60 205 52 53 120 76 304 106
163 26 198 35 307 80 49 21 144 49 210 63 138 29 150 33 259 86 54 27 118 48
199 64 85 18 149 39 225 75 58 27 145 60 192 75 48 14 124 46 170 70 46 24
118 54 159 66 41 12 116 43 165 70 50 26 115 56 145 65 74 24 106 40 167 87
29 22 85 52 125 67 41 15 102 46 135 69 34 23 96 55 138 72 42 16 101 48 132
70 30 23 87 58 126 77 40 20 91 53 115 73 23 21 59 46 80 55 20 10 73 43 117
75 44 31 103 69 130 83 28 14 81 52 119 86 38 34 73 61 78 61 5 0 35 24 66 54
31 29 84 70 117 91 33 21 83 58 110 83 28 24 73 59 100 77 28 17 187 169 355
337 381 381 411 413 445 468 15 25 53 77 84 115 31 39 73 93 93 120 20 28 46
59 59 70 12 11 38 45 57 75 19 30 59 81 88 112 30 31 54 61 54 66 0 6 30 50
66 99 36 48 78 115 93 148 15 33 45 83 65 110 21 27 55 83 76 125 21 42 55 96
76 120 20 25 50 74 66 110 16 36 49 94 74 130 24 36 57 97 73 135 15 39 47 99
70 135 23 35 49 89 57 120 29 103 35 117 75 185 23 37 58 117 79 177 21 61 54
134 73 162 41 62 59 111 82 226 10 53 35 124 66 191 34 74 57 141 74 220 14
63 45 167 70 232 52 137 70 202 84 309 6 42 24 118 40 170 51 160 80 288 96
428 21 173 38 255 76 366 31 92 48 210 69 504 6 74 14 189 20 255 5 66 18 156
29 199 12 44 21 102 21 130 0 28 7 78 16 111 13 47 18 146 25 450 4 215 12
413 18 440 13 68 14 764 0 840 -5 33 -14 168 -19 300 -7 204 -12 254 -33 335
-24 94 -66 368 -87 571 -11 109 -26 172 -80 323 -17 49 -42 155 -55 235 -28
164 -34 186 -82 294 -19 43 -45 119 -57 170 -13 50 -46 144 -74 207 -28 63
-62 156 -75 206 -26 97 -43 134 -89 202 -17 24 -43 78 -58 120 -15 42 -47 108
-69 147 -22 38 -53 105 -67 148 -15 45 -45 106 -70 141 -24 33 -59 94 -78 134
-19 39 -56 99 -81 132 -25 33 -55 81 -67 107 -11 27 -44 82 -73 123 -29 41
-62 95 -74 120 -12 25 -40 68 -62 95 -23 28 -63 82 -89 120 -26 39 -58 79 -70
90 -13 11 -39 45 -58 75 -19 30 -56 78 -83 106 -38 41 -49 61 -55 99 -12 82 2
193 42 325 69 233 83 293 83 370 1 82 23 282 48 430 8 52 19 118 23 145 5 28
9 149 9 270 1 178 5 243 22 334 l20 114 -20 131 c-11 72 -23 185 -26 251 -3
66 -15 165 -25 220 -11 55 -24 156 -30 225 -23 271 -72 555 -109 644 -11 24
-27 82 -36 128 -9 46 -23 112 -30 149 -8 36 -36 126 -63 200 -27 73 -55 161
-62 194 -18 92 -37 146 -91 252 -27 53 -49 102 -49 108 0 37 -56 197 -89 254
-21 36 -50 102 -65 146 -17 52 -42 101 -72 140 -25 33 -54 78 -66 100 -11 22
-42 63 -68 90 -27 28 -60 68 -74 90 -37 56 -172 174 -226 197 -25 11 -67 37
-95 58 -63 48 -95 64 -170 85 -33 9 -118 37 -190 61 -208 69 -256 76 -626 81
-355 5 -593 -10 -759 -47 -219 -50 -326 -70 -457 -89 -189 -27 -223 -36 -329
-81 -61 -26 -143 -50 -245 -70 -90 -18 -202 -49 -271 -76 -66 -24 -155 -53
-200 -64 -44 -12 -128 -45 -187 -74 -58 -30 -142 -63 -186 -75 -44 -12 -118
-42 -165 -65 -47 -24 -130 -58 -185 -75 -55 -17 -131 -49 -170 -72 -38 -22
-108 -55 -153 -71 -46 -17 -107 -46 -135 -65 -66 -44 -109 -66 -173 -87 -28
-9 -86 -39 -129 -66 -43 -27 -106 -59 -140 -70 -34 -11 -86 -36 -116 -55 -83
-52 -139 -81 -196 -99 -28 -10 -79 -35 -113 -57 -34 -22 -94 -56 -133 -76 -40
-19 -97 -55 -127 -78 -31 -24 -87 -57 -125 -74 -38 -17 -93 -50 -122 -72 -30
-22 -71 -48 -91 -57 -81 -36 -369 -10 -541 49 -105 36 -316 75 -476 89 -176
14 -212 20 -300 47 -44 13 -159 38 -255 54 -166 29 -226 35 -555 58 -78 6
-170 17 -205 25 -36 9 -121 18 -190 22 -76 4 -154 14 -200 26 -108 30 -276 39
-895 47 -346 5 -579 13 -627 21 -62 9 -94 9 -155 0 -49 -8 -281 -16 -628 -20
-609 -9 -787 -19 -896 -48 -42 -12 -124 -23 -191 -26 -64 -3 -150 -13 -190
-21 -40 -9 -134 -20 -208 -25 -303 -21 -393 -31 -560 -59 -96 -17 -213 -42
-259 -55 -46 -14 -133 -30 -195 -36 -61 -6 -158 -15 -216 -21 -123 -12 -256
-39 -387 -80 -140 -43 -255 -62 -378 -63 -122 -1 -135 3 -231 75 -27 21 -81
52 -118 69 -37 17 -91 49 -119 71 -28 23 -87 59 -132 81 -44 22 -100 55 -125
72 -25 17 -86 47 -137 67 -50 20 -111 50 -135 67 -56 38 -111 65 -174 86 -28
9 -81 36 -118 61 -37 24 -104 58 -149 75 -45 17 -110 49 -144 71 -34 22 -99
55 -146 74 -47 18 -123 53 -169 78 -45 25 -123 57 -173 72 -49 15 -122 44
-162 66 -39 21 -111 50 -160 64 -48 14 -144 52 -213 84 -69 33 -156 67 -194
76 -38 9 -122 36 -186 60 -66 25 -180 57 -265 74 -99 20 -186 45 -257 74 -72
30 -140 49 -210 61 -229 36 -348 58 -453 81 -278 62 -430 75 -820 74 -170 -1
-321 -3 -335 -6z"/>
</g>
</svg>
